<svg width="24" height="24" viewBox="0 0 25 24" fill="none" xmlns="http://www.w3.org/2000/svg"><path d="M22.302 12.2299C22.302 11.5501 22.2468 10.8667 22.1293 10.198H12.6973V14.0487H18.0985C17.8744 15.2906 17.1542 16.3892 16.0997 17.0873V19.5859H19.3221C21.2144 17.8443 22.302 15.2722 22.302 12.2299Z" fill="#4285F4"></path><path d="M12.6972 22C15.3941 22 17.6685 21.1145 19.3256 19.586L16.1033 17.0874C15.2067 17.6974 14.0493 18.0428 12.7008 18.0428C10.0921 18.0428 7.88014 16.2828 7.08649 13.9165H3.76123V16.4922C5.45877 19.8689 8.9163 22 12.6972 22Z" fill="#34A853"></path><path d="M7.08305 13.9165C6.66418 12.6746 6.66418 11.3298 7.08305 10.0879V7.51221H3.76147C2.34318 10.3378 2.34318 13.6667 3.76147 16.4922L7.08305 13.9165Z" fill="#FBBC04"></path><path d="M12.6972 5.95791C14.1228 5.93587 15.5007 6.47232 16.5332 7.45704L19.3881 4.60209C17.5803 2.90456 15.181 1.97128 12.6972 2.00067C8.9163 2.00067 5.45877 4.13178 3.76123 7.51215L7.08281 10.0878C7.87279 7.71791 10.0884 5.95791 12.6972 5.95791Z" fill="#EA4335"></path></svg>